<svg id="Layer_1" data-name="Layer 1" xmlns="http://www.w3.org/2000/svg" xmlns:xlink="http://www.w3.org/1999/xlink" viewBox="0 0 512 512"><defs><style>.cls-1{fill:#6930ca;}.cls-2{fill:#f2b81a;}.cls-3{fill:url(#linear-gradient);}.cls-4{fill:url(#linear-gradient-2);}.cls-5{fill:#00b7b1;}</style><linearGradient id="linear-gradient" x1="194.08" y1="220.24" x2="226.6" y2="232.16" gradientUnits="userSpaceOnUse"><stop offset="0" stop-color="#f18221"/><stop offset="1" stop-color="#f2b81a"/></linearGradient><linearGradient id="linear-gradient-2" x1="226.75" y1="167.85" x2="373.57" y2="172.86" gradientUnits="userSpaceOnUse"><stop offset="0" stop-color="#215f70"/><stop offset="1" stop-color="#00b7b1"/></linearGradient></defs><circle class="cls-1" cx="256" cy="256" r="241"/><path class="cls-2" d="M199.87,216c-12.23,1.57-11.68,25.33-13.39,45.16L176.6,362.39A47.23,47.23,0,0,1,125,404.81l15.19-155.75a38.75,38.75,0,0,1,42.33-34.8Z"/><path class="cls-3" d="M338.28,229.46h0A46.25,46.25,0,0,1,287.76,271l-101.28-9.89c1.71-19.83,1.16-43.59,13.39-45.16h0Z"/><path class="cls-4" d="M433,157.14h0a47.51,47.51,0,0,1-51.89,42.66l-104-10.16c1.75-20.36,1.18-44.77,13.75-46.38h0Z"/><path class="cls-5" d="M291.05,142.82c-12.77,2.05-12.2,26.46-13.95,46.82L267,293.66a48.51,48.51,0,0,1-53,43.57l15.6-160c2.14-21.87,21.6-37.87,43.67-36.18Z"/></svg>