<svg xmlns="http://www.w3.org/2000/svg" xmlns:xlink="http://www.w3.org/1999/xlink" viewBox="0 0 200 160"><defs><style>.cls-1{mask:url(#mask);filter:url(#luminosity-noclip-7);}.cls-10,.cls-12,.cls-16,.cls-17,.cls-18,.cls-2,.cls-23,.cls-31,.cls-32,.cls-33,.cls-37,.cls-38,.cls-4,.cls-45,.cls-48,.cls-6,.cls-8{mix-blend-mode:multiply;}.cls-2{fill:url(#linear-gradient);}.cls-3{mask:url(#mask-2);filter:url(#luminosity-noclip-12);}.cls-4{fill:url(#linear-gradient-2);}.cls-5{mask:url(#mask-3);filter:url(#luminosity-noclip-8);}.cls-6{fill:url(#linear-gradient-3);}.cls-7{mask:url(#mask-4);filter:url(#luminosity-noclip-9);}.cls-8{fill:url(#linear-gradient-4);}.cls-9{mask:url(#mask-5);filter:url(#luminosity-noclip-10);}.cls-10{fill:url(#linear-gradient-5);}.cls-11{mask:url(#mask-6);filter:url(#luminosity-noclip-11);}.cls-12{fill:url(#linear-gradient-6);}.cls-13{isolation:isolate;}.cls-14{fill:url(#linear-gradient-7);}.cls-15{fill:url(#linear-gradient-8);}.cls-16,.cls-17,.cls-18{opacity:0.63;}.cls-16{fill:url(#linear-gradient-9);}.cls-17{fill:url(#linear-gradient-10);}.cls-18{fill:url(#linear-gradient-11);}.cls-19{mask:url(#mask-7);}.cls-20,.cls-28,.cls-30,.cls-32,.cls-40{opacity:0.31;}.cls-20,.cls-27,.cls-28,.cls-30,.cls-34,.cls-40,.cls-44,.cls-47{mix-blend-mode:overlay;}.cls-20{fill:url(#linear-gradient-12);}.cls-21{fill:#1a1430;}.cls-22{fill:url(#linear-gradient-13);}.cls-23{opacity:0.49;fill:url(#linear-gradient-14);}.cls-24{fill:url(#linear-gradient-15);}.cls-25{fill:url(#linear-gradient-16);}.cls-26{mask:url(#mask-8);}.cls-27{opacity:0.18;fill:url(#linear-gradient-17);}.cls-29{mask:url(#mask-9);}.cls-30{fill:url(#linear-gradient-18);}.cls-31{opacity:0.42;fill:url(#linear-gradient-19);}.cls-32{fill:url(#linear-gradient-20);}.cls-33{opacity:0.46;fill:url(#linear-gradient-21);}.cls-34,.cls-35{fill:#fff;}.cls-34{opacity:0.1;}.cls-35,.cls-44{opacity:0.53;}.cls-36{fill:url(#linear-gradient-22);}.cls-37,.cls-38{opacity:0.32;}.cls-37{fill:url(#linear-gradient-23);}.cls-38{fill:url(#linear-gradient-24);}.cls-39{mask:url(#mask-10);}.cls-40{fill:url(#linear-gradient-25);}.cls-41{fill:url(#linear-gradient-26);}.cls-42{fill:url(#linear-gradient-27);}.cls-43{mask:url(#mask-11);}.cls-44{fill:url(#linear-gradient-28);}.cls-45{opacity:0.33;fill:url(#linear-gradient-29);}.cls-46{mask:url(#mask-12);}.cls-47{opacity:0.25;fill:url(#linear-gradient-30);}.cls-48{fill:#fab017;}.cls-49{filter:url(#luminosity-noclip-6);}.cls-50{filter:url(#luminosity-noclip-5);}.cls-51{filter:url(#luminosity-noclip-4);}.cls-52{filter:url(#luminosity-noclip-3);}.cls-53{filter:url(#luminosity-noclip-2);}.cls-54{filter:url(#luminosity-noclip);}</style><filter id="luminosity-noclip" x="123.84" y="-8272" width="28.44" height="32766" filterUnits="userSpaceOnUse" color-interpolation-filters="sRGB"><feFlood flood-color="#fff" result="bg"/><feBlend in="SourceGraphic" in2="bg"/></filter><mask id="mask" x="123.84" y="-8272" width="28.44" height="32766" maskUnits="userSpaceOnUse"><g class="cls-54"/></mask><linearGradient id="linear-gradient" x1="118.05" y1="-7.13" x2="146" y2="-7.13" gradientTransform="translate(15.81 -2.7) rotate(21.23)" gradientUnits="userSpaceOnUse"><stop offset="0" stop-color="#1a1a1a"/><stop offset="1" stop-color="#fff"/></linearGradient><filter id="luminosity-noclip-2" x="49.44" y="-8272" width="22.45" height="32766" filterUnits="userSpaceOnUse" color-interpolation-filters="sRGB"><feFlood flood-color="#fff" result="bg"/><feBlend in="SourceGraphic" in2="bg"/></filter><mask id="mask-2" x="49.44" y="-8272" width="22.45" height="32766" maskUnits="userSpaceOnUse"><g class="cls-53"/></mask><linearGradient id="linear-gradient-2" x1="83.34" y1="113.19" x2="44.12" y2="142.38" gradientTransform="matrix(1, 0, 0, 1, 0, 0)" xlink:href="#linear-gradient"/><filter id="luminosity-noclip-3" x="83.63" y="-8272" width="84.25" height="32766" filterUnits="userSpaceOnUse" color-interpolation-filters="sRGB"><feFlood flood-color="#fff" result="bg"/><feBlend in="SourceGraphic" in2="bg"/></filter><mask id="mask-3" x="83.63" y="-8272" width="84.25" height="32766" maskUnits="userSpaceOnUse"><g class="cls-52"/></mask><linearGradient id="linear-gradient-3" x1="183.41" y1="64.32" x2="118.18" y2="166.56" gradientTransform="matrix(1, 0, 0, 1, 0, 0)" xlink:href="#linear-gradient"/><filter id="luminosity-noclip-4" x="106.1" y="-8272" width="61.78" height="32766" filterUnits="userSpaceOnUse" color-interpolation-filters="sRGB"><feFlood flood-color="#fff" result="bg"/><feBlend in="SourceGraphic" in2="bg"/></filter><mask id="mask-4" x="106.1" y="-8272" width="61.78" height="32766" maskUnits="userSpaceOnUse"><g class="cls-51"/></mask><linearGradient id="linear-gradient-4" x1="114.24" y1="52.19" x2="156.69" y2="160.91" gradientTransform="matrix(1, 0, 0, 1, 0, 0)" xlink:href="#linear-gradient"/><filter id="luminosity-noclip-5" x="136.07" y="-8272" width="23.51" height="32766" filterUnits="userSpaceOnUse" color-interpolation-filters="sRGB"><feFlood flood-color="#fff" result="bg"/><feBlend in="SourceGraphic" in2="bg"/></filter><mask id="mask-5" x="136.07" y="-8272" width="23.51" height="32766" maskUnits="userSpaceOnUse"><g class="cls-50"/></mask><linearGradient id="linear-gradient-5" x1="136.07" y1="101.77" x2="159.57" y2="101.77" gradientTransform="matrix(1, 0, 0, 1, 0, 0)" xlink:href="#linear-gradient"/><filter id="luminosity-noclip-6" x="47.71" y="-8272" width="24.19" height="32766" filterUnits="userSpaceOnUse" color-interpolation-filters="sRGB"><feFlood flood-color="#fff" result="bg"/><feBlend in="SourceGraphic" in2="bg"/></filter><mask id="mask-6" x="47.71" y="-8272" width="24.19" height="32766" maskUnits="userSpaceOnUse"><g class="cls-49"/></mask><linearGradient id="linear-gradient-6" x1="80.97" y1="113.42" x2="46.42" y2="139.15" gradientTransform="matrix(1, 0, 0, 1, 0, 0)" xlink:href="#linear-gradient"/><linearGradient id="linear-gradient-7" x1="38.83" y1="10.04" x2="146" y2="10.04" gradientTransform="translate(15.81 -2.7) rotate(21.23)" gradientUnits="userSpaceOnUse"><stop offset="0" stop-color="#157f3b"/><stop offset="1" stop-color="#86fa7a"/></linearGradient><linearGradient id="linear-gradient-8" x1="33.89" y1="8.54" x2="122.55" y2="8.54" gradientTransform="translate(15.81 -2.7) rotate(21.23)" gradientUnits="userSpaceOnUse"><stop offset="0" stop-color="#159959"/><stop offset="1" stop-color="#86fa7a"/></linearGradient><linearGradient id="linear-gradient-9" x1="33.89" y1="13.39" x2="107.76" y2="13.39" xlink:href="#linear-gradient-7"/><linearGradient id="linear-gradient-10" x1="38.83" y1="20.78" x2="127.68" y2="20.78" xlink:href="#linear-gradient-7"/><linearGradient id="linear-gradient-11" x1="38.83" y1="34.69" x2="95.22" y2="34.69" xlink:href="#linear-gradient-7"/><filter id="luminosity-noclip-7" x="123.84" y="13.8" width="28.44" height="46.68" filterUnits="userSpaceOnUse" color-interpolation-filters="sRGB"><feFlood flood-color="#fff" result="bg"/><feBlend in="SourceGraphic" in2="bg"/></filter><mask id="mask-7" x="123.84" y="13.8" width="28.44" height="46.68" maskUnits="userSpaceOnUse"><g class="cls-1"><path class="cls-2" d="M152.27,13.8l-19.21,7.69c5.95,3.12,12.5,8.87,9.8,18.56-4.12,14.79-16,8-19,20.43,13.72-3.54,26.8-7.06,26.8-7.06Z"/></g></mask><linearGradient id="linear-gradient-12" x1="118.05" y1="-7.13" x2="146" y2="-7.13" gradientTransform="translate(15.81 -2.7) rotate(21.23)" gradientUnits="userSpaceOnUse"><stop offset="0" stop-color="#fff"/><stop offset="1" stop-color="#fff"/></linearGradient><linearGradient id="linear-gradient-13" x1="167.58" y1="114.15" x2="175.31" y2="114.15" gradientUnits="userSpaceOnUse"><stop offset="0" stop-color="#7b491d"/><stop offset="1" stop-color="#703a23"/></linearGradient><linearGradient id="linear-gradient-14" x1="167.58" y1="110.88" x2="175.31" y2="110.88" xlink:href="#linear-gradient-13"/><linearGradient id="linear-gradient-15" x1="157.96" y1="54.74" x2="30.86" y2="150" gradientUnits="userSpaceOnUse"><stop offset="0" stop-color="#dc9a34"/><stop offset="0.38" stop-color="#d78f3a"/><stop offset="1" stop-color="#d18241"/></linearGradient><linearGradient id="linear-gradient-16" x1="27.67" y1="46.76" x2="158.3" y2="46.76" xlink:href="#linear-gradient-13"/><filter id="luminosity-noclip-8" x="83.63" y="52.7" width="84.25" height="106.1" filterUnits="userSpaceOnUse" color-interpolation-filters="sRGB"><feFlood flood-color="#fff" result="bg"/><feBlend in="SourceGraphic" in2="bg"/></filter><mask id="mask-8" x="83.63" y="52.7" width="84.25" height="106.1" maskUnits="userSpaceOnUse"><g class="cls-5"><path class="cls-6" d="M156.25,158.8a11.63,11.63,0,0,0,11.63-11.63V64.33A11.63,11.63,0,0,0,156.25,52.7H156c1.27,9.44-6.13,35.86-31.57,47.49-23.94,11,6.75,48.93-40.84,58.61Z"/></g></mask><linearGradient id="linear-gradient-17" x1="183.41" y1="64.32" x2="118.18" y2="166.56" gradientTransform="matrix(1, 0, 0, 1, 0, 0)" xlink:href="#linear-gradient-12"/><filter id="luminosity-noclip-9" x="106.1" y="52.7" width="61.78" height="106.1" filterUnits="userSpaceOnUse" color-interpolation-filters="sRGB"><feFlood flood-color="#fff" result="bg"/><feBlend in="SourceGraphic" in2="bg"/></filter><mask id="mask-9" x="106.1" y="52.7" width="61.78" height="106.1" maskUnits="userSpaceOnUse"><g class="cls-7"><path class="cls-8" d="M156.25,52.7H112.1c16.21,9.45,42.13,30.89,36.14,69.24C144,149,122.56,156.84,106.1,158.8h50.15a11.63,11.63,0,0,0,11.63-11.63V64.33A11.63,11.63,0,0,0,156.25,52.7Z"/></g></mask><linearGradient id="linear-gradient-18" x1="114.24" y1="52.19" x2="156.69" y2="160.91" gradientTransform="matrix(1, 0, 0, 1, 0, 0)" xlink:href="#linear-gradient-12"/><linearGradient id="linear-gradient-19" x1="89.18" y1="38.88" x2="-6.59" y2="137.5" xlink:href="#linear-gradient-15"/><linearGradient id="linear-gradient-20" x1="77.27" y1="86.46" x2="14.22" y2="151.39" xlink:href="#linear-gradient-15"/><linearGradient id="linear-gradient-21" x1="27.6" y1="46.77" x2="48.13" y2="46.77" xlink:href="#linear-gradient-13"/><linearGradient id="linear-gradient-22" x1="136.07" y1="101.84" x2="180.25" y2="101.84" gradientUnits="userSpaceOnUse"><stop offset="0" stop-color="#d77f33"/><stop offset="1" stop-color="#cc693f"/></linearGradient><linearGradient id="linear-gradient-23" x1="161.92" y1="101.36" x2="180.25" y2="101.36" xlink:href="#linear-gradient-22"/><linearGradient id="linear-gradient-24" x1="161.38" y1="104.37" x2="180.25" y2="104.37" xlink:href="#linear-gradient-22"/><filter id="luminosity-noclip-10" x="136.07" y="88.42" width="23.51" height="26.7" filterUnits="userSpaceOnUse" color-interpolation-filters="sRGB"><feFlood flood-color="#fff" result="bg"/><feBlend in="SourceGraphic" in2="bg"/></filter><mask id="mask-10" x="136.07" y="88.42" width="23.51" height="26.7" maskUnits="userSpaceOnUse"><g class="cls-9"><path class="cls-10" d="M136.07,101.84h0a13.42,13.42,0,0,0,11.42,13.28c-4.91-9.75,12.52-7.9,12.07-18.36-.21-4.82-2.05-7.19-4-8.34h-6.1A13.42,13.42,0,0,0,136.07,101.84Z"/></g></mask><linearGradient id="linear-gradient-25" x1="136.07" y1="101.77" x2="159.57" y2="101.77" gradientTransform="matrix(1, 0, 0, 1, 0, 0)" xlink:href="#linear-gradient-12"/><linearGradient id="linear-gradient-26" x1="145.46" y1="101.84" x2="158.16" y2="101.84" gradientTransform="translate(27.81 -32.48) rotate(13.43)" gradientUnits="userSpaceOnUse"><stop offset="0" stop-color="#e7f6fd"/><stop offset="1" stop-color="#d7f0fc"/></linearGradient><linearGradient id="linear-gradient-27" x1="87.96" y1="104.55" x2="28.46" y2="148.85" gradientUnits="userSpaceOnUse"><stop offset="0" stop-color="#f8ffd4"/><stop offset="0.39" stop-color="#f8d935"/><stop offset="1" stop-color="#fb882a"/></linearGradient><filter id="luminosity-noclip-11" x="47.71" y="110.39" width="24.19" height="45.7" filterUnits="userSpaceOnUse" color-interpolation-filters="sRGB"><feFlood flood-color="#fff" result="bg"/><feBlend in="SourceGraphic" in2="bg"/></filter><mask id="mask-11" x="47.71" y="110.39" width="24.19" height="45.7" maskUnits="userSpaceOnUse"><g class="cls-11"><path class="cls-12" d="M49.39,110.39c-3.5,3.49-1.85,10.7,7.79,15.87,15.46,8.3,6.47,23.66,1.62,29.82a24.23,24.23,0,0,0-9.41-45.69Z"/></g></mask><linearGradient id="linear-gradient-28" x1="80.97" y1="113.42" x2="46.42" y2="139.15" gradientTransform="matrix(1, 0, 0, 1, 0, 0)" xlink:href="#linear-gradient-12"/><linearGradient id="linear-gradient-29" x1="48.82" y1="131.63" x2="27.31" y2="147.64" xlink:href="#linear-gradient-27"/><filter id="luminosity-noclip-12" x="49.44" y="110.88" width="22.45" height="46.37" filterUnits="userSpaceOnUse" color-interpolation-filters="sRGB"><feFlood flood-color="#fff" result="bg"/><feBlend in="SourceGraphic" in2="bg"/></filter><mask id="mask-12" x="49.44" y="110.88" width="22.45" height="46.37" maskUnits="userSpaceOnUse"><g class="cls-3"><path class="cls-4" d="M52.83,110.88c3.54,5.05,3.72,13.36-1.29,25.14-5.16,12.16.29,18.38,4.66,21.22a24.24,24.24,0,0,0-3.37-46.36Z"/></g></mask><linearGradient id="linear-gradient-30" x1="83.34" y1="113.19" x2="44.12" y2="142.38" gradientTransform="matrix(1, 0, 0, 1, 0, 0)" xlink:href="#linear-gradient-12"/></defs><title>cashback</title><g class="cls-13"><g id="Layer_4" data-name="Layer 4"><path class="cls-14" d="M150.64,53.42l1.63-39.62L32.41,61.8,82.76,80.58s2.76-11.84,11.22-13S150.64,53.42,150.64,53.42Z"/><polygon class="cls-15" points="138.77 19.2 138.35 2.78 27 62.08 138.77 19.2"/><path class="cls-16" d="M116.23,27.43C108.49,25,126.37,14.59,126.81,8.71L27,62.08Z"/><path class="cls-17" d="M92,52.75c12.9-4.19,24.1-17.3,31.07-27.25L32.41,61.8,82.76,80.58s2.76-11.84,11.22-13c4.59-.64,20.83-4.74,34.76-8.36C115,62,70.9,59.58,92,52.75Z"/><path class="cls-18" d="M32.41,61.8,82.76,80.58S84.65,72.48,90.1,69C68.49,64.51,77,50,85.23,40.65Z"/><g class="cls-19"><path class="cls-20" d="M152.27,13.8l-19.21,7.69c5.95,3.12,12.5,8.87,9.8,18.56-4.12,14.79-16,8-19,20.43,13.72-3.54,26.8-7.06,26.8-7.06Z"/></g><polygon class="cls-21" points="32.34 63.87 32.48 59.73 153.84 11.12 152.13 52.84 149.15 53.99 150.7 16.47 32.34 63.87"/><path class="cls-21" d="M50.36,71l.11-4.13,78.91-32.63-.08,2.09C129,45.33,134,50.57,140.52,48l1.49-.6L141.68,56l-3,1.17.17-4.6c-6.91,1.81-12.18-3.68-12.55-13.07Z"/><polygon class="cls-21" points="27.48 61.86 27.38 57.83 139.78 0 140.26 18.44 137.28 19.97 136.91 5.56 27.48 61.86"/><path class="cls-22" d="M167.58,149.79h1.75a6,6,0,0,0,6-6V78.5l-7.73,4.4Z"/><path class="cls-23" d="M167.58,143.27c.38-3.8,1.9-13.65,7.73-19.65V78.5l-7.73,4.4Z"/><path class="cls-24" d="M156.25,158.8h-117A11.64,11.64,0,0,1,27.6,147.17V46.76h0a5.94,5.94,0,0,0,5.94,5.94H156.25a11.63,11.63,0,0,1,11.63,11.63v82.84A11.63,11.63,0,0,1,156.25,158.8Z"/><path class="cls-25" d="M60.58,40.82H34a6.13,6.13,0,0,0-6.29,5.94h0A6.13,6.13,0,0,0,34,52.7H158.3L42.56,51.79Z"/><g class="cls-26"><path class="cls-27" d="M156.25,158.8a11.63,11.63,0,0,0,11.63-11.63V64.33A11.63,11.63,0,0,0,156.25,52.7H156c1.27,9.44-6.13,35.86-31.57,47.49-23.94,11,6.75,48.93-40.84,58.61Z"/></g><g class="cls-28"><g class="cls-29"><path class="cls-30" d="M156.25,52.7H112.1c16.21,9.45,42.13,30.89,36.14,69.24C144,149,122.56,156.84,106.1,158.8h50.15a11.63,11.63,0,0,0,11.63-11.63V64.33A11.63,11.63,0,0,0,156.25,52.7Z"/></g></g><path class="cls-31" d="M33.54,52.7a5.94,5.94,0,0,1-5.94-5.94V147.17a11.59,11.59,0,0,0,2.9,7.67c-.57-3.65.29-8,3.65-13.14C47.27,121.68,23.8,81.3,63,76.29c28.31-3.61,41.17-16.63,46.59-23.59Z"/><path class="cls-32" d="M46.58,52.7h-13a5.94,5.94,0,0,1-5.94-5.94V147.17A11.64,11.64,0,0,0,39.24,158.8h56c-46.07-1.45-18.57-41-32.22-59.38C44,73.84,36.14,58.46,46.58,52.7Z"/><path class="cls-33" d="M44.51,51.81l-2.85,0,.48-.31c-7.89-1.57-9.13-7.07-9.06-10.64a5.94,5.94,0,0,0,.46,11.86H48.13C47.87,52.32,46.75,52,44.51,51.81Z"/><path class="cls-34" d="M93.6,69.17c-2.76,23.53,8.81,45.71,25.85,49.54s33.11-12.16,35.88-35.7a56.67,56.67,0,0,0-4.59-30.31H98.19A53.8,53.8,0,0,0,93.6,69.17Z"/><circle class="cls-35" cx="135.73" cy="72.31" r="7.31"/><path class="cls-35" d="M148.73,81.83A3.3,3.3,0,1,1,146,78.05,3.3,3.3,0,0,1,148.73,81.83Z"/><path class="cls-36" d="M149.49,88.42h25a5.79,5.79,0,0,1,5.79,5.79v15.28a5.79,5.79,0,0,1-5.79,5.79h-25a13.43,13.43,0,0,1-13.43-13.43v0A13.43,13.43,0,0,1,149.49,88.42Z"/><path class="cls-37" d="M174.46,88.42H161.92c4,2.38,9.12,6.64,9.52,13.07.6,9.55,3.24,6.79,6.23,12.81a5.8,5.8,0,0,0,2.58-4.82V94.21A5.79,5.79,0,0,0,174.46,88.42Z"/><path class="cls-38" d="M180.25,109.48V94.21a5.87,5.87,0,0,0-.05-.74c-1.95,4.85-5.07,10.89-8.76,11.9-6.06,1.66-5.11,8.79-10.06,9.9h13.08A5.79,5.79,0,0,0,180.25,109.48Z"/><g class="cls-39"><path class="cls-40" d="M136.07,101.84h0a13.42,13.42,0,0,0,11.42,13.28c-4.91-9.75,12.52-7.9,12.07-18.36-.21-4.82-2.05-7.19-4-8.34h-6.1A13.42,13.42,0,0,0,136.07,101.84Z"/></g><circle class="cls-41" cx="151.81" cy="101.84" r="6.35" transform="translate(-19.51 38.05) rotate(-13.43)"/><path class="cls-35" d="M139,101.84h0a13.42,13.42,0,0,1,13.43-13.42h-2.9a13.42,13.42,0,0,0-13.42,13.42h0a13.42,13.42,0,0,0,13.42,13.43h2.9A13.43,13.43,0,0,1,139,101.84Z"/><path class="cls-21" d="M156.25,160h-117A12.85,12.85,0,0,1,26.4,147.17V46.76h2.4a4.75,4.75,0,0,0,4.74,4.74H156.25a12.84,12.84,0,0,1,12.83,12.83V88.42h-2.4V64.33A10.44,10.44,0,0,0,156.25,53.9H33.54a7.11,7.11,0,0,1-4.74-1.81v95.08A10.45,10.45,0,0,0,39.24,157.6h117a10.44,10.44,0,0,0,10.43-10.43v-31.9h2.4v31.9A12.85,12.85,0,0,1,156.25,160Z"/><path class="cls-21" d="M159.08,119.27a.77.77,0,0,1-.78-.77v-2.85a.78.78,0,0,1,1.56,0v2.85A.77.77,0,0,1,159.08,119.27Z"/><path class="cls-21" d="M145.5,150.57h-5.82a.78.78,0,1,1,0-1.55h5.82a.78.78,0,0,1,0,1.55Zm-11.65,0H128a.78.78,0,0,1,0-1.55h5.82a.78.78,0,1,1,0,1.55Zm-11.64,0h-5.82a.78.78,0,0,1,0-1.55h5.82a.78.78,0,1,1,0,1.55Zm-11.64,0h-5.82a.78.78,0,0,1,0-1.55h5.82a.78.78,0,1,1,0,1.55Zm-11.64,0H93.11a.78.78,0,1,1,0-1.55h5.82a.78.78,0,1,1,0,1.55Zm-11.64,0H81.47a.78.78,0,1,1,0-1.55h5.82a.78.78,0,1,1,0,1.55Zm-11.64,0H69.83a.78.78,0,1,1,0-1.55h5.82a.78.78,0,1,1,0,1.55Zm-11.64,0H58.19a.78.78,0,1,1,0-1.55H64a.78.78,0,0,1,0,1.55Zm-11.64,0H46.55a.78.78,0,1,1,0-1.55h5.82a.78.78,0,0,1,0,1.55Zm98.93-.18a.78.78,0,0,1-.15-1.54,8.79,8.79,0,0,0,4.63-2.52.78.78,0,0,1,1.1,0,.78.78,0,0,1,0,1.1,10.42,10.42,0,0,1-5.45,3Zm7.64-7.84h-.13a.79.79,0,0,1-.63-.9,9.39,9.39,0,0,0,.12-1.5V136a.78.78,0,0,1,1.56,0v4.18a10.37,10.37,0,0,1-.15,1.76A.78.78,0,0,1,158.94,142.55Zm.14-11.64a.77.77,0,0,1-.78-.77v-5.82a.78.78,0,0,1,1.56,0v5.82A.77.77,0,0,1,159.08,130.91Z"/><path class="cls-21" d="M40.72,150.57H37.87a.78.78,0,1,1,0-1.55h2.85a.78.78,0,0,1,0,1.55Z"/><path class="cls-21" d="M40.72,62.48H37.87a.78.78,0,0,1-.78-.78.77.77,0,0,1,.78-.77h2.85a.76.76,0,0,1,.77.77A.77.77,0,0,1,40.72,62.48Z"/><path class="cls-21" d="M159.08,80.32a.78.78,0,0,1-.78-.78V74a.78.78,0,0,1,1.56,0v5.5A.78.78,0,0,1,159.08,80.32Zm-.41-11a.77.77,0,0,1-.74-.55,8.92,8.92,0,0,0-2.72-4.18.78.78,0,0,1-.09-1.1.79.79,0,0,1,1.1-.08,10.53,10.53,0,0,1,3.2,4.91.78.78,0,0,1-.52,1A.91.91,0,0,1,158.67,69.35Zm-7.9-6.78h-.11a10.19,10.19,0,0,0-1.24-.08h-4.15a.78.78,0,0,1-.78-.78.77.77,0,0,1,.78-.77h4.15a9.9,9.9,0,0,1,1.45.1.77.77,0,0,1-.1,1.54Zm-11-.09h-5.5a.77.77,0,0,1-.77-.78.76.76,0,0,1,.77-.77h5.5a.77.77,0,0,1,.78.77A.78.78,0,0,1,139.76,62.48Zm-11,0h-5.5a.78.78,0,0,1-.78-.78.77.77,0,0,1,.78-.77h5.5a.77.77,0,0,1,.78.77A.78.78,0,0,1,128.76,62.48Zm-11,0h-5.5a.78.78,0,0,1-.78-.78.77.77,0,0,1,.78-.77h5.5a.77.77,0,0,1,.78.77A.78.78,0,0,1,117.75,62.48Zm-11,0h-5.5a.78.78,0,0,1-.78-.78.77.77,0,0,1,.78-.77h5.5a.77.77,0,0,1,.78.77A.78.78,0,0,1,106.75,62.48Zm-11,0h-5.5a.78.78,0,0,1-.78-.78.77.77,0,0,1,.78-.77h5.5a.77.77,0,0,1,.78.77A.78.78,0,0,1,95.74,62.48Zm-11,0h-5.5a.78.78,0,0,1-.78-.78.77.77,0,0,1,.78-.77h5.5a.76.76,0,0,1,.77.77A.77.77,0,0,1,84.74,62.48Zm-11,0h-5.5a.78.78,0,0,1-.78-.78.77.77,0,0,1,.78-.77h5.5a.77.77,0,0,1,.78.77A.78.78,0,0,1,73.73,62.48Zm-11,0H57.22a.78.78,0,0,1-.77-.78.77.77,0,0,1,.77-.77h5.51a.76.76,0,0,1,.77.77A.77.77,0,0,1,62.73,62.48Zm-11,0h-5.5a.78.78,0,0,1-.78-.78.77.77,0,0,1,.78-.77h5.5a.77.77,0,0,1,.78.77A.78.78,0,0,1,51.72,62.48Z"/><path class="cls-21" d="M159.08,88.68a.78.78,0,0,1-.78-.78V85.06a.78.78,0,0,1,1.56,0V87.9A.78.78,0,0,1,159.08,88.68Z"/><path class="cls-21" d="M174.46,116.47h-25a14.63,14.63,0,0,1,0-29.25h25a7,7,0,0,1,7,7v15.27A7,7,0,0,1,174.46,116.47Zm-25-26.85a12.23,12.23,0,0,0,0,24.45h25a4.6,4.6,0,0,0,4.59-4.59V94.21a4.6,4.6,0,0,0-4.59-4.59Z"/><path class="cls-21" d="M151.81,109.39a7.55,7.55,0,1,1,7.55-7.55A7.56,7.56,0,0,1,151.81,109.39Zm0-12.69a5.15,5.15,0,1,0,5.15,5.14A5.15,5.15,0,0,0,151.81,96.7Z"/><path class="cls-21" d="M158.3,53.9H34a7.15,7.15,0,1,1,0-14.28H60.58V42H34a4.75,4.75,0,1,0,0,9.48H158.3Z"/><path class="cls-21" d="M169.33,151h-1.75v-2.4h1.75a4.78,4.78,0,0,0,4.78-4.77V115.2h2.4v28.62A7.18,7.18,0,0,1,169.33,151Z"/><rect class="cls-21" x="174.11" y="78.5" width="2.4" height="9.92"/><circle class="cls-42" cx="47.65" cy="134.56" r="24.24"/><g class="cls-43"><path class="cls-44" d="M49.39,110.39c-3.5,3.49-1.85,10.7,7.79,15.87,15.46,8.3,6.47,23.66,1.62,29.82a24.23,24.23,0,0,0-9.41-45.69Z"/></g><path class="cls-45" d="M23.41,134.56a24.24,24.24,0,0,0,23.5,24.22c-6.52-2.22-5.29-6.53-7.37-19-1.93-11.56-9.34-16-12.83-17.43A24.2,24.2,0,0,0,23.41,134.56Z"/><g class="cls-46"><path class="cls-47" d="M52.83,110.88c3.54,5.05,3.72,13.36-1.29,25.14-5.16,12.16.29,18.38,4.66,21.22a24.24,24.24,0,0,0-3.37-46.36Z"/></g><path class="cls-21" d="M47.65,160a25.44,25.44,0,1,1,25.44-25.44A25.47,25.47,0,0,1,47.65,160Zm0-48.48a23,23,0,1,0,23,23A23.07,23.07,0,0,0,47.65,111.52Z"/><path class="cls-48" d="M50.13,131c-3.87-1.6-4.52-2.47-4.52-3.81s.9-2.57,3.4-2.57a9,9,0,0,1,4.72,1.27h0a1,1,0,0,0,1.39-.5l1-2.72a1,1,0,0,0-.41-1.18h0A11.21,11.21,0,0,0,51.67,120a1,1,0,0,1-.82-1v-2.24a1,1,0,0,0-1-1H47.32a1,1,0,0,0-1,1v2.64a1,1,0,0,1-.66.92,7.47,7.47,0,0,0-5.57,7.25c0,4.51,3.57,6.53,7.42,8,2.88,1.17,4.05,2.33,4.05,4s-1.58,3.07-3.94,3.07a10,10,0,0,1-5.4-1.61h0a1,1,0,0,0-1.45.48l-1,2.76a1,1,0,0,0,.35,1.12h0a12.24,12.24,0,0,0,5.07,1.85,1,1,0,0,1,.83.95v2.39a1,1,0,0,0,1,1h2.6a1,1,0,0,0,1-1v-2.77a1,1,0,0,1,.68-.92,7.94,7.94,0,0,0,5.84-7.61C57.12,136.79,56.33,133.48,50.13,131Z"/><path class="cls-21" d="M46.06,150.22v-4.17a12,12,0,0,1-6.31-1.82l1-2.76a11,11,0,0,0,5.94,1.77c2.93,0,4.91-1.69,4.91-4s-1.61-3.67-4.66-4.91c-4.21-1.65-6.81-3.55-6.81-7.14,0-3.42,2.44-6,6.23-6.64v-4.17h2.56v4a11,11,0,0,1,5.36,1.44l-1,2.72a10,10,0,0,0-5.2-1.4c-3.17,0-4.37,1.9-4.37,3.55,0,2.14,1.53,3.22,5.12,4.7,4.25,1.73,6.39,3.88,6.39,7.55,0,3.26-2.27,6.31-6.52,7v4.3Z"/></g></g></svg>