<svg xmlns="http://www.w3.org/2000/svg" width="183" height="107" viewBox="0 0 183 107">
  <defs>
    <style>
      .cls-1 {
        fill: #fbaf42;
      }

      .cls-1, .cls-2, .cls-3 {
        fill-rule: evenodd;
      }

      .cls-2 {
        fill: #575558;
      }

      .cls-3 {
        fill: #8051f8;
      }
    </style>
  </defs>
  <path id="Forma_1" data-name="Forma 1" class="cls-1" d="M97.547,51.059a0.437,0.437,0,0,0-.318-0.121H94.861A4.61,4.61,0,0,0,93.974,49H97.2a0.439,0.439,0,0,0,.319-0.121,0.415,0.415,0,0,0,.124-0.31V47.188a0.415,0.415,0,0,0-.124-0.31,0.438,0.438,0,0,0-.319-0.121H85.68a0.438,0.438,0,0,0-.319.121,0.415,0.415,0,0,0-.124.31v1.794a0.409,0.409,0,0,0,.131.3,0.431,0.431,0,0,0,.312.128h2.008q2.922,0,3.711,1.524H85.68a0.438,0.438,0,0,0-.319.121,0.415,0.415,0,0,0-.124.31v1.376a0.414,0.414,0,0,0,.124.31,0.437,0.437,0,0,0,.319.121h5.913a2.651,2.651,0,0,1-1.419,1.686,6.391,6.391,0,0,1-2.943.58H85.68a0.431,0.431,0,0,0-.312.128,0.41,0.41,0,0,0-.131.3v1.713a0.4,0.4,0,0,0,.124.3q2.659,2.751,6.9,7.7a0.412,0.412,0,0,0,.346.162h2.7a0.4,0.4,0,0,0,.4-0.243,0.362,0.362,0,0,0-.055-0.459q-4.043-4.828-6.356-7.229a7.128,7.128,0,0,0,3.822-1.484A5.01,5.01,0,0,0,94.9,53.176h2.326a0.437,0.437,0,0,0,.318-0.121,0.414,0.414,0,0,0,.125-0.31V51.369A0.415,0.415,0,0,0,97.547,51.059Z"/>
  <path class="cls-2" d="M69.1,45.164V67.43h9.151V45.164H69.1ZM68.859,69.995H114.2a2.486,2.486,0,0,1,2.486,2.485v0.15a2.486,2.486,0,0,1-2.486,2.485H68.859a2.485,2.485,0,0,1-2.485-2.485V72.48A2.485,2.485,0,0,1,68.859,69.995Zm35.012-24.831V67.43h10.066V45.164H103.871ZM63.607,40.882L90.145,23.754a2.569,2.569,0,0,1,3.66,0l25.623,17.128s0.8,1.647-.915,1.713-53.991,0-53.991,0S62.51,42.247,63.607,40.882ZM91.471,28.8a5.156,5.156,0,0,1,5.316,4.98,5.327,5.327,0,0,1-10.632,0A5.156,5.156,0,0,1,91.471,28.8Z"/>
  <path class="cls-3" d="M93.758,5.062s29.592,0.655,39.024,21.729c0,0,2.768,4.3,0,7.243-1.019,1.083-4.873,3.922-8.362,0,0,0-9.253-15.313-30.662-17.2V5.062Zm-5.577,0c-43.16,5.8-45.526,41.647-45.526,41.647H31.505V37.656L6.418,52.142,31.505,66.628V58.48s15.507,0.088,19.512,0,3.716-3.621,3.716-3.621V45.8c0.974-9.293,10.433-25.69,33.484-28.972Z"/>
  <path id="Shape_15_copy" data-name="Shape 15 copy" class="cls-3" d="M89.242,101.938s-29.592-.655-39.024-21.729c0,0-2.768-4.3,0-7.243,1.02-1.083,4.874-3.921,8.362,0,0,0,9.253,15.313,30.662,17.2v11.77Zm5.577,0c43.16-5.8,45.526-41.648,45.526-41.648H151.5v9.054l25.087-14.486L151.5,40.372V48.52s-15.507-.088-19.512,0-3.717,3.621-3.717,3.621V61.2c-0.974,9.293-10.433,25.69-33.484,28.972Z"/>
</svg>
